<svg xmlns="http://www.w3.org/2000/svg" width="31" height="31" viewBox="0 0 31 31"><defs><style>.a{fill:#4267b2;stroke:rgba(0,0,0,0);stroke-miterlimit:10;}</style></defs><g transform="translate(0.5 0.5)"><path class="a" d="M15,30A15,15,0,0,1,4.393,4.393,15,15,0,0,1,25.606,25.607,14.9,14.9,0,0,1,15,30Zm-4.89-17.859v3.446h1.929v9.806h4.055V15.587h2.677l.354-3.443h-3.03V10.116a.828.828,0,0,1,.86-.939h2.179V5.831l-3-.012a3.837,3.837,0,0,0-3.3,1.448,4.548,4.548,0,0,0-.8,2.644v2.231Z" transform="translate(0 0)"/></g></svg>