<svg xmlns="http://www.w3.org/2000/svg" width="159.285" height="51.334" viewBox="0 0 159.285 51.334"><defs><style>.a{fill:#e53978;}.b{fill:#00b3cd;}.c{fill:#ffc114;}.d{fill:#002b52;}</style></defs><g transform="translate(-351.047 0)"><g transform="translate(351.047 0)"><g transform="translate(0 0.149)"><g transform="translate(9.985)"><path class="a" d="M855.444,9.481a9.115,9.115,0,0,0-2.508-5.29,9.1,9.1,0,0,0-5.18-2.49,8.274,8.274,0,0,0,2.517,5.272A8.306,8.306,0,0,0,855.444,9.481Z" transform="translate(-814.214 -1.701)"/><g transform="translate(0 13.521)"><path class="b" d="M474.28,183.578c5.248-.9,12.749-4.083,18.36-8.193,0,0-5.884-1.426-11.9-7.443-6.091-6.094-7.423-11.946-7.423-11.946-4.133,5.587-7.41,13.058-8.327,18.291Z" transform="translate(-464.988 -155.996)"/></g></g><g transform="translate(0 13.751)"><path class="c" d="M351.6,167.253c-.713-.713-.8-1.422.116-1.862l12.678-6.649c.9-.438,1.661.434,1.223,1.342l-6.56,12.59c-.442.908-1.179.856-1.892.144Z" transform="translate(-351.047 -158.626)"/><path class="c" d="M610.685,426.341c-.714-.713-.792-1.417.114-1.861l12.68-6.647c.906-.443,1.662.432,1.221,1.339l-6.554,12.589c-.445.911-1.181.861-1.895.146Z" transform="translate(-587.43 -395.011)"/></g></g><g transform="translate(1.862 35.041)"><g transform="translate(0.413 3.123)"><path class="a" d="M387.808,435.516c-3.049,7.751-10.8,10.8-10.8,10.8S380.052,438.565,387.808,435.516Z" transform="translate(-377.006 -435.516)"/></g><g transform="translate(6.241 6.245)"><path class="a" d="M451.6,471.143a15.667,15.667,0,0,1-8.093,8.09A15.677,15.677,0,0,1,451.6,471.143Z" transform="translate(-443.508 -471.143)"/></g><path class="a" d="M380.38,399.877a15.644,15.644,0,0,1-8.09,8.092A15.68,15.68,0,0,1,380.38,399.877Z" transform="translate(-372.29 -399.877)"/></g><g transform="translate(19.287 0)"><path class="b" d="M603.2,9.757a10.037,10.037,0,0,1-6.6-3.04A10,10,0,0,1,593.552,0c-6.037-.082-13.827,3.569-20.4,10.139-.7.7-1.37,1.449-2.016,2.235,0,0,1.594,5.916,7.71,12.036a30.31,30.31,0,0,0,11.976,7.647c.787-.646,1.537-1.313,2.233-2.009C599.586,23.517,603.233,15.778,603.2,9.757ZM586.506,16.69a5.2,5.2,0,1,1,7.354,0A5.21,5.21,0,0,1,586.506,16.69Z" transform="translate(-571.137 0)"/></g></g><g transform="translate(409.749 12.251)"><g transform="translate(0)"><path class="d" d="M1030.573,224.992a2.114,2.114,0,0,1,3.365-.964,1.646,1.646,0,0,1,.559,1.3,1.714,1.714,0,0,1-.169.777l-5.985,12.645a2.816,2.816,0,0,1-2.637,1.792,2.23,2.23,0,0,1-1.538-.524,2.338,2.338,0,0,1-.76-1.269l-2.436-12.713a4.286,4.286,0,0,1-.032-.675,1.822,1.822,0,0,1,.691-1.319,2.366,2.366,0,0,1,1.539-.508,1.579,1.579,0,0,1,1.725,1.489l1.183,8.216.2,2.062h.067l.711-2.028Z" transform="translate(-1020.938 -216.199)"/><path class="d" d="M1183.282,162.16a2.22,2.22,0,0,1-.677,1.337,1.965,1.965,0,0,1-1.421.558,1.822,1.822,0,0,1-1.385-.575,1.585,1.585,0,0,1-.44-1.352l1.825-13.052a2.323,2.323,0,0,1,.71-1.351,1.993,1.993,0,0,1,1.422-.542,1.825,1.825,0,0,1,1.385.574,1.5,1.5,0,0,1,.406,1.353Zm-.574-21.707a2.394,2.394,0,0,1,1.656-.643,2.054,2.054,0,0,1,1.555.643,1.919,1.919,0,0,1,.474,1.658,2.614,2.614,0,0,1-.846,1.655,2.346,2.346,0,0,1-1.622.643,2.088,2.088,0,0,1-1.59-.643,1.913,1.913,0,0,1-.474-1.655A2.632,2.632,0,0,1,1182.708,140.453Z" transform="translate(-1165.463 -139.81)"/><path class="d" d="M1279.163,162.954a1.637,1.637,0,0,1-.542,1.1,1.659,1.659,0,0,1-1.149.423,1.642,1.642,0,0,1-1.1-.593c-.395-.393-.706-.591-.93-.591a2.85,2.85,0,0,0-1.151.474,5.141,5.141,0,0,1-2.569.845,4.2,4.2,0,0,1-3.517-1.809,5.715,5.715,0,0,1-1.014-4.345l.711-4.971a7.492,7.492,0,0,1,2.2-4.344,5.65,5.65,0,0,1,4.058-1.809,4.569,4.569,0,0,1,2.6.947.382.382,0,0,0,.355.085.29.29,0,0,0,.221-.255l.845-6.018a2.089,2.089,0,0,1,.743-1.336,2.2,2.2,0,0,1,1.489-.558,1.623,1.623,0,0,1,1.69,1.894Zm-8.014-4.5a2.126,2.126,0,0,0,.457,1.708,1.925,1.925,0,0,0,1.571.726,2.594,2.594,0,0,0,1.775-.711,2.731,2.731,0,0,0,.931-1.723l.71-4.971a2.131,2.131,0,0,0-.457-1.74,1.963,1.963,0,0,0-1.572-.694,2.567,2.567,0,0,0-1.775.727,2.789,2.789,0,0,0-.931,1.707Z" transform="translate(-1245.552 -140.165)"/><path class="d" d="M1446.078,162.16a2.219,2.219,0,0,1-.677,1.337,1.964,1.964,0,0,1-1.42.558,1.825,1.825,0,0,1-1.386-.575,1.591,1.591,0,0,1-.44-1.352l1.826-13.052a2.323,2.323,0,0,1,.71-1.351,1.992,1.992,0,0,1,1.422-.542,1.825,1.825,0,0,1,1.385.574,1.5,1.5,0,0,1,.406,1.353Zm-.574-21.707a2.393,2.393,0,0,1,1.656-.643,2.055,2.055,0,0,1,1.555.643,1.922,1.922,0,0,1,.474,1.658,2.61,2.61,0,0,1-.846,1.655,2.346,2.346,0,0,1-1.622.643,2.087,2.087,0,0,1-1.59-.643,1.909,1.909,0,0,1-.473-1.655A2.626,2.626,0,0,1,1445.5,140.453Z" transform="translate(-1405.229 -139.81)"/><path class="d" d="M1526.752,225.261a1.607,1.607,0,0,1,.339,1.269,3.482,3.482,0,0,1-.812,1.759l-7.133,9.568h4.8a1.268,1.268,0,0,1,1.064.506,1.852,1.852,0,0,1,.355,1.251,1.9,1.9,0,0,1-.558,1.3,1.652,1.652,0,0,1-1.2.524h-8.217a1.4,1.4,0,0,1-1.166-.54,1.643,1.643,0,0,1-.321-1.286,4.108,4.108,0,0,1,.845-1.757l7.134-9.568h-4.666a1.36,1.36,0,0,1-1.1-.508,1.638,1.638,0,0,1-.355-1.251,1.908,1.908,0,0,1,.54-1.319,1.667,1.667,0,0,1,1.217-.506h8.014A1.467,1.467,0,0,1,1526.752,225.261Z" transform="translate(-1470.688 -217.265)"/><path class="d" d="M1674.578,237.083a5.673,5.673,0,0,1-1.032-4.345l.711-4.971a7.185,7.185,0,0,1,2.18-4.378,5.761,5.761,0,0,1,4.076-1.775,3.818,3.818,0,0,1,1.994.592,4.187,4.187,0,0,0,1.185.591,1.967,1.967,0,0,0,1.183-.574,1.927,1.927,0,0,1,1.251-.473,1.387,1.387,0,0,1,1.048.423,1.237,1.237,0,0,1,.3,1.1l-1.96,13.963a1.612,1.612,0,0,1-.559,1.1,1.681,1.681,0,0,1-1.132.423,1.644,1.644,0,0,1-1.1-.593c-.395-.393-.7-.591-.93-.591a3.14,3.14,0,0,0-1.218.508,4.6,4.6,0,0,1-2.435.811A4.27,4.27,0,0,1,1674.578,237.083Zm8.368-9.316a2.163,2.163,0,0,0-.44-1.723,1.929,1.929,0,0,0-1.589-.711,2.638,2.638,0,0,0-1.741.711,2.677,2.677,0,0,0-.964,1.723l-.71,4.971a2,2,0,0,0,.439,1.708,1.939,1.939,0,0,0,1.555.726,2.659,2.659,0,0,0,1.792-.711,2.705,2.705,0,0,0,.947-1.723Z" transform="translate(-1616.297 -214.445)"/><path class="d" d="M1842.449,224.958a2,2,0,0,1,1.894-1.422,2.064,2.064,0,0,1,1.419.508,1.675,1.675,0,0,1,.575,1.319,1.785,1.785,0,0,1-.2.811l-7.709,16.026a9.988,9.988,0,0,1-2.452,3.279,4.8,4.8,0,0,1-3.2,1.353,1.853,1.853,0,0,1-1.369-.49,1.764,1.764,0,0,1-.491-1.3,2.035,2.035,0,0,1,1.657-2.061,3.955,3.955,0,0,0,1.269-.762,3.913,3.913,0,0,0,1-1.234l.643-1.285-2.706-13.626a4.467,4.467,0,0,1-.033-.643,1.988,1.988,0,0,1,.659-1.351,2.186,2.186,0,0,1,1.537-.542,1.752,1.752,0,0,1,1.151.39,1.6,1.6,0,0,1,.574,1.032l1.252,8.283.2,1.86h.067l.711-1.826Z" transform="translate(-1759.94 -216.199)"/><path class="d" d="M2012.089,223.406a1.809,1.809,0,0,1,.608-1.15,1.753,1.753,0,0,1,1.184-.44,1.48,1.48,0,0,1,1.15.608q.508.609.845.608a6.1,6.1,0,0,0,1.437-.709,4.828,4.828,0,0,1,2.418-.711,4,4,0,0,1,3.347,1.707,5.647,5.647,0,0,1,.912,4.345l-1.251,9.129a2.143,2.143,0,0,1-.71,1.337,2.083,2.083,0,0,1-1.453.558,1.769,1.769,0,0,1-1.37-.575,1.608,1.608,0,0,1-.423-1.352l1.284-9.028a2.16,2.16,0,0,0-.422-1.741,1.948,1.948,0,0,0-1.572-.66,2.662,2.662,0,0,0-1.775.643,2.608,2.608,0,0,0-.9,1.758l-1.285,9.061a2.179,2.179,0,0,1-.694,1.337,2.022,2.022,0,0,1-1.436.558,1.768,1.768,0,0,1-1.37-.575,1.613,1.613,0,0,1-.424-1.352Z" transform="translate(-1923.492 -214.445)"/></g></g></g></svg>